<?xml version="1.0" encoding="UTF-8" standalone="no"?>
<!DOCTYPE svg PUBLIC "-//W3C//DTD SVG 1.1//EN" "http://www.w3.org/Graphics/SVG/1.1/DTD/svg11.dtd">
<svg width="100%" height="100%" viewBox="0 0 1280 800" version="1.1" xmlns="http://www.w3.org/2000/svg" xmlns:xlink="http://www.w3.org/1999/xlink" xml:space="preserve" xmlns:serif="http://www.serif.com/" style="fill-rule:evenodd;clip-rule:evenodd;stroke-linejoin:round;stroke-miterlimit:2;">
    <path d="M487.524,370.765C461.206,341.925 446.615,304.291 446.615,265.247C446.613,265.247 446.613,265.246 446.613,265.245C446.613,158.512 533.267,71.859 640,71.859C746.733,71.859 833.387,158.512 833.387,265.245C833.387,265.246 833.387,265.247 833.387,265.247C833.386,304.205 818.877,341.765 792.687,370.606C736.051,432.931 688.443,508.305 649.441,601.98C647.885,605.736 644.207,608.174 640.141,608.144C636.075,608.114 632.434,605.622 630.933,601.843C593.825,509.231 544.751,433.436 487.524,370.765Z" style="fill:rgb(255,154,0);"/>
    <g transform="matrix(0.823081,0,0,0.823081,113.228,43.0962)">
        <path d="M487.524,370.765C461.206,341.925 446.616,304.292 446.615,265.249C446.613,265.248 446.613,265.247 446.613,265.245C446.613,158.512 533.267,71.859 640,71.859C746.733,71.859 833.387,158.512 833.387,265.245C833.387,265.246 833.387,265.247 833.387,265.249C833.386,304.206 818.876,341.766 792.687,370.606C734.261,434.901 685.443,513.082 645.769,610.916C644.835,613.227 642.584,614.733 640.092,614.713C637.6,614.692 635.373,613.151 634.477,610.825C596.971,514.117 546.59,435.45 487.524,370.765Z" style="fill:white;"/>
    </g>
    <g transform="matrix(1.35146,0,0,1.35146,-258.473,-98.4332)">
        <circle cx="664.819" cy="264.243" r="86.677" style="fill:rgb(255,154,0);"/>
    </g>
</svg>
